<svg xmlns="http://www.w3.org/2000/svg" xmlns:xlink="http://www.w3.org/1999/xlink" width="700" zoomAndPan="magnify" viewBox="0 0 525 374.999991" height="500" preserveAspectRatio="xMidYMid meet" version="1.0"><defs><clipPath id="e2699dc35e"><path d="M 93.222656 7.621094 L 432 7.621094 L 432 337.816406 L 93.222656 337.816406 Z M 93.222656 7.621094 " clip-rule="nonzero"/></clipPath><clipPath id="e2703df6e0"><path d="M 104.472656 7.621094 L 420.527344 7.621094 C 426.738281 7.621094 431.777344 12.660156 431.777344 18.871094 L 431.777344 326.566406 C 431.777344 332.78125 426.738281 337.816406 420.527344 337.816406 L 104.472656 337.816406 C 98.261719 337.816406 93.222656 332.78125 93.222656 326.566406 L 93.222656 18.871094 C 93.222656 12.660156 98.261719 7.621094 104.472656 7.621094 Z M 104.472656 7.621094 " clip-rule="nonzero"/></clipPath><clipPath id="f84c71c3ed"><path d="M 93.222656 7.621094 L 431.472656 7.621094 L 431.472656 337.621094 L 93.222656 337.621094 Z M 93.222656 7.621094 " clip-rule="nonzero"/></clipPath><clipPath id="35a5886048"><path d="M 104.472656 7.621094 L 420.515625 7.621094 C 426.730469 7.621094 431.765625 12.660156 431.765625 18.871094 L 431.765625 326.558594 C 431.765625 332.773438 426.730469 337.808594 420.515625 337.808594 L 104.472656 337.808594 C 98.261719 337.808594 93.222656 332.773438 93.222656 326.558594 L 93.222656 18.871094 C 93.222656 12.660156 98.261719 7.621094 104.472656 7.621094 Z M 104.472656 7.621094 " clip-rule="nonzero"/></clipPath><clipPath id="0091d8cced"><path d="M 93.222656 19.785156 L 432 19.785156 L 432 349.984375 L 93.222656 349.984375 Z M 93.222656 19.785156 " clip-rule="nonzero"/></clipPath><clipPath id="25f315758a"><path d="M 104.472656 19.785156 L 420.527344 19.785156 C 426.738281 19.785156 431.777344 24.824219 431.777344 31.035156 L 431.777344 338.734375 C 431.777344 344.945312 426.738281 349.984375 420.527344 349.984375 L 104.472656 349.984375 C 98.261719 349.984375 93.222656 344.945312 93.222656 338.734375 L 93.222656 31.035156 C 93.222656 24.824219 98.261719 19.785156 104.472656 19.785156 Z M 104.472656 19.785156 " clip-rule="nonzero"/></clipPath><clipPath id="50359f3410"><path d="M 93.222656 19.789062 L 431.472656 19.789062 L 431.472656 349.785156 L 93.222656 349.785156 Z M 93.222656 19.789062 " clip-rule="nonzero"/></clipPath><clipPath id="0429080c96"><path d="M 104.472656 19.789062 L 420.515625 19.789062 C 426.730469 19.789062 431.765625 24.824219 431.765625 31.035156 L 431.765625 338.722656 C 431.765625 344.9375 426.730469 349.972656 420.515625 349.972656 L 104.472656 349.972656 C 98.261719 349.972656 93.222656 344.9375 93.222656 338.722656 L 93.222656 31.035156 C 93.222656 24.824219 98.261719 19.789062 104.472656 19.789062 Z M 104.472656 19.789062 " clip-rule="nonzero"/></clipPath><clipPath id="297ad1c6ed"><path d="M 204.808594 53.585938 L 320.191406 53.585938 L 320.191406 168.964844 L 204.808594 168.964844 Z M 204.808594 53.585938 " clip-rule="nonzero"/></clipPath><clipPath id="78ea336f87"><path d="M 262.5 53.585938 C 230.636719 53.585938 204.808594 79.414062 204.808594 111.273438 C 204.808594 143.136719 230.636719 168.964844 262.5 168.964844 C 294.363281 168.964844 320.191406 143.136719 320.191406 111.273438 C 320.191406 79.414062 294.363281 53.585938 262.5 53.585938 Z M 262.5 53.585938 " clip-rule="nonzero"/></clipPath></defs><g clip-path="url(#e2699dc35e)"><g clip-path="url(#e2703df6e0)"><path fill="#e55e40" d="M 93.222656 7.621094 L 431.160156 7.621094 L 431.160156 337.816406 L 93.222656 337.816406 Z M 93.222656 7.621094 " fill-opacity="1" fill-rule="nonzero"/></g></g><g clip-path="url(#f84c71c3ed)"><g clip-path="url(#35a5886048)"><path stroke-linecap="butt" transform="matrix(0.75, 0, 0, 0.75, 93.22404, 7.622858)" fill="none" stroke-linejoin="miter" d="M 14.998156 -0.00235252 L 436.388808 -0.00235252 C 444.675267 -0.00235252 451.388809 6.716398 451.388809 14.997648 L 451.388809 425.247675 C 451.388809 433.534134 444.675267 440.247676 436.388808 440.247676 L 14.998156 440.247676 C 6.716905 440.247676 -0.00184524 433.534134 -0.00184524 425.247675 L -0.00184524 14.997648 C -0.00184524 6.716398 6.716905 -0.00235252 14.998156 -0.00235252 Z M 14.998156 -0.00235252 " stroke="#e55e40" stroke-width="2" stroke-opacity="1" stroke-miterlimit="4"/></g></g><g clip-path="url(#0091d8cced)"><g clip-path="url(#25f315758a)"><path fill="#ffffff" d="M 93.222656 19.785156 L 431.160156 19.785156 L 431.160156 349.984375 L 93.222656 349.984375 Z M 93.222656 19.785156 " fill-opacity="1" fill-rule="nonzero"/></g></g><g clip-path="url(#50359f3410)"><g clip-path="url(#0429080c96)"><path stroke-linecap="butt" transform="matrix(0.75, 0, 0, 0.75, 93.22404, 19.787346)" fill="none" stroke-linejoin="miter" d="M 14.998156 0.00228848 L 436.388808 0.00228848 C 444.675267 0.00228848 451.388809 6.715831 451.388809 14.997081 L 451.388809 425.247108 C 451.388809 433.533567 444.675267 440.247109 436.388808 440.247109 L 14.998156 440.247109 C 6.716905 440.247109 -0.00184524 433.533567 -0.00184524 425.247108 L -0.00184524 14.997081 C -0.00184524 6.715831 6.716905 0.00228848 14.998156 0.00228848 Z M 14.998156 0.00228848 " stroke="#e55e40" stroke-width="2" stroke-opacity="1" stroke-miterlimit="4"/></g></g><g clip-path="url(#297ad1c6ed)"><g clip-path="url(#78ea336f87)"><path fill="#e55e40" d="M 204.808594 53.585938 L 320.191406 53.585938 L 320.191406 168.964844 L 204.808594 168.964844 Z M 204.808594 53.585938 " fill-opacity="1" fill-rule="nonzero"/></g></g></svg>