<svg xmlns="http://www.w3.org/2000/svg" xmlns:xlink="http://www.w3.org/1999/xlink" width="700" zoomAndPan="magnify" viewBox="0 0 525 374.999991" height="500" preserveAspectRatio="xMidYMid meet" version="1.0"><defs><clipPath id="955f82f6a7"><path d="M 194 37 L 506 37 L 506 190.214844 L 194 190.214844 Z M 194 37 " clip-rule="nonzero"/></clipPath><clipPath id="355f4b3a5b"><path d="M 269.148438 37.5 L 430.625 37.5 C 450.515625 37.5 469.59375 45.402344 483.660156 59.46875 C 497.722656 73.53125 505.625 92.609375 505.625 112.5 L 505.625 115.214844 C 505.625 135.105469 497.722656 154.179688 483.660156 168.246094 C 469.59375 182.3125 450.515625 190.214844 430.625 190.214844 L 269.148438 190.214844 C 249.257812 190.214844 230.183594 182.3125 216.117188 168.246094 C 202.050781 154.179688 194.148438 135.105469 194.148438 115.214844 L 194.148438 112.5 C 194.148438 92.609375 202.050781 73.53125 216.117188 59.46875 C 230.183594 45.402344 249.257812 37.5 269.148438 37.5 Z M 269.148438 37.5 " clip-rule="nonzero"/></clipPath><clipPath id="19b3e48235"><path d="M 19 127 L 331 127 L 331 280.179688 L 19 280.179688 Z M 19 127 " clip-rule="nonzero"/></clipPath><clipPath id="711e0d82f8"><path d="M 94.375 127.464844 L 255.851562 127.464844 C 275.742188 127.464844 294.816406 135.367188 308.882812 149.433594 C 322.949219 163.496094 330.851562 182.574219 330.851562 202.464844 L 330.851562 205.179688 C 330.851562 225.070312 322.949219 244.148438 308.882812 258.210938 C 294.816406 272.277344 275.742188 280.179688 255.851562 280.179688 L 94.375 280.179688 C 74.484375 280.179688 55.40625 272.277344 41.339844 258.210938 C 27.277344 244.148438 19.375 225.070312 19.375 205.179688 L 19.375 202.464844 C 19.375 182.574219 27.277344 163.496094 41.339844 149.433594 C 55.40625 135.367188 74.484375 127.464844 94.375 127.464844 Z M 94.375 127.464844 " clip-rule="nonzero"/></clipPath></defs><g clip-path="url(#955f82f6a7)"><g clip-path="url(#355f4b3a5b)"><path fill="#e55e40" d="M 194.148438 37.5 L 505.542969 37.5 L 505.542969 190.214844 L 194.148438 190.214844 Z M 194.148438 37.5 " fill-opacity="1" fill-rule="nonzero"/></g></g><g clip-path="url(#19b3e48235)"><g clip-path="url(#711e0d82f8)"><path fill="#e55e40" d="M 19.375 127.464844 L 330.769531 127.464844 L 330.769531 280.179688 L 19.375 280.179688 Z M 19.375 127.464844 " fill-opacity="1" fill-rule="nonzero"/></g></g></svg>