<svg xmlns="http://www.w3.org/2000/svg" xmlns:xlink="http://www.w3.org/1999/xlink" width="1366" zoomAndPan="magnify" viewBox="0 0 1024.5 493.49999" height="658" preserveAspectRatio="xMidYMid meet" version="1.0"><defs><clipPath id="b353da0e0e"><path d="M 579.792969 0.269531 L 1023.730469 0.269531 L 1023.730469 493 L 579.792969 493 Z M 579.792969 0.269531 " clip-rule="nonzero"/></clipPath><clipPath id="219dd3c54d"><path d="M 659.933594 0.707031 L 1023.730469 0.707031 L 1023.730469 372.328125 L 659.933594 372.328125 Z M 659.933594 0.707031 " clip-rule="nonzero"/></clipPath><clipPath id="e62a0f12c8"><path d="M 670 0.707031 L 1023.730469 0.707031 L 1023.730469 355 L 670 355 Z M 670 0.707031 " clip-rule="nonzero"/></clipPath><clipPath id="73e26809e4"><path d="M 0.269531 47 L 500 47 L 500 493 L 0.269531 493 Z M 0.269531 47 " clip-rule="nonzero"/></clipPath><clipPath id="c028b62ebd"><path d="M -21.277344 47.183594 L 472.476562 20.085938 L 499.578125 513.839844 L 5.820312 540.941406 Z M -21.277344 47.183594 " clip-rule="nonzero"/></clipPath><clipPath id="8f4671a772"><path d="M -21.277344 47.183594 L 472.476562 20.085938 L 499.578125 513.839844 L 5.820312 540.941406 Z M -21.277344 47.183594 " clip-rule="nonzero"/></clipPath><clipPath id="aff8f336ce"><path d="M 0.269531 200.371094 L 294 200.371094 L 294 493 L 0.269531 493 Z M 0.269531 200.371094 " clip-rule="nonzero"/></clipPath><clipPath id="f2700a1e19"><path d="M 0.269531 200.371094 L 295.011719 200.371094 L 295.011719 493 L 0.269531 493 Z M 0.269531 200.371094 " clip-rule="nonzero"/></clipPath></defs><g clip-path="url(#b353da0e0e)"><path fill="#f4e6e1" d="M 1074.289062 494.769531 C 1051.445312 474.152344 1011.453125 453.539062 973.675781 432.921875 C 935.464844 412.304688 899.464844 391.691406 874.464844 371.074219 C 849.023438 350.460938 834.574219 329.847656 829.320312 309.230469 C 823.625 288.613281 827.128906 268 827.417969 247.382812 C 827.390625 226.765625 830.667969 206.15625 824.828125 185.539062 C 819.425781 164.921875 804.902344 144.308594 779.414062 123.691406 C 754.367188 103.074219 718.355469 82.464844 680.132812 61.847656 C 642.359375 41.230469 602.367188 20.617188 579.523438 0 C 744.441406 0 909.371094 0 1074.289062 0 C 1074.289062 164.921875 1074.289062 329.847656 1074.289062 494.769531 " fill-opacity="1" fill-rule="nonzero"/></g><g clip-path="url(#219dd3c54d)"><path fill="#084994" d="M 649.34375 -1.804688 C 766.628906 -8.207031 738.539062 59.289062 801.46875 91.53125 C 848.238281 115.496094 878.789062 75.457031 927.414062 121.492188 C 941.550781 134.882812 955.203125 149.78125 964.242188 167.191406 C 971.242188 180.671875 975.429688 194.824219 977.140625 209.859375 C 983.378906 264.636719 963.980469 315.371094 1009.328125 360.324219 C 1012.375 363.34375 1029.398438 376.875 1035.136719 374.964844 C 1036.957031 374.355469 1038.925781 372.433594 1040.273438 371.160156 C 1076.832031 336.746094 1046.132812 211.9375 1048.507812 165.667969 C 1050.429688 128.117188 1053.242188 91.890625 1051.898438 54.253906 C 1050.226562 7.632812 1055.359375 -27.878906 989.429688 -12.796875 " fill-opacity="1" fill-rule="evenodd"/></g><g clip-path="url(#e62a0f12c8)"><path fill="#e55e40" d="M 682.898438 -22.878906 C 678.792969 -22.847656 674.503906 -22.707031 670 -22.460938 L 682.898438 -22.878906 C 785.261719 -23.734375 761.613281 39.871094 822.125 70.875 C 868.894531 94.839844 899.445312 54.800781 948.070312 100.835938 C 962.210938 114.226562 975.859375 129.121094 984.902344 146.53125 C 991.898438 160.015625 996.085938 174.167969 997.796875 189.203125 C 1004.035156 243.980469 984.636719 294.714844 1029.984375 339.667969 C 1033.03125 342.6875 1050.054688 356.21875 1055.792969 354.304688 C 1057.613281 353.699219 1059.582031 351.777344 1060.929688 350.503906 C 1097.488281 316.085938 1066.792969 191.28125 1069.164062 145.011719 C 1071.085938 107.460938 1073.902344 71.234375 1072.554688 33.59375 C 1070.882812 -13.023438 1076.015625 -48.535156 1010.089844 -33.453125 Z M 863.75 133.621094 C 888.71875 135.101562 910.269531 138.8125 930.378906 154.402344 C 954.1875 172.855469 957.152344 196.847656 955.535156 226.882812 C 954.75 241.539062 962.75 272.191406 958.511719 282.042969 C 938.363281 328.890625 838.972656 132.152344 863.75 133.621094 Z M 863.75 133.621094 " fill-opacity="1" fill-rule="evenodd"/></g><g clip-path="url(#73e26809e4)"><g clip-path="url(#c028b62ebd)"><g clip-path="url(#8f4671a772)"><path fill="#f4e6e1" d="M -21.277344 47.183594 C 2.660156 66.519531 43.722656 84.90625 82.574219 103.421875 C 121.859375 121.914062 158.933594 140.523438 185.027344 159.738281 C 211.558594 178.929688 227.117188 198.722656 233.492188 219.019531 C 240.308594 239.292969 237.941406 260.066406 238.78125 280.667969 C 239.9375 301.253906 237.792969 322.011719 244.757812 342.277344 C 251.28125 362.570312 266.914062 382.355469 293.492188 401.542969 C 319.632812 420.757812 356.714844 439.363281 396.011719 457.855469 C 434.859375 476.371094 475.921875 494.761719 499.863281 514.09375 C 335.1875 523.132812 170.511719 532.171875 5.835938 541.210938 C -3.203125 376.535156 -12.238281 211.859375 -21.277344 47.183594 " fill-opacity="1" fill-rule="nonzero"/></g></g></g><g clip-path="url(#aff8f336ce)"><path fill="#e55e40" d="M -24.511719 197.460938 C 47.542969 217.417969 -4.625 258.949219 32.4375 306.578125 C 51.539062 331.121094 97.820312 306.867188 101.703125 343.984375 C 104.832031 373.878906 41.664062 417.886719 62.949219 439.03125 C 83.863281 459.804688 107.0625 414.925781 130.09375 426.9375 C 155.292969 440.082031 102.898438 474.480469 135.59375 479.621094 C 144.429688 481.007812 153.253906 480.289062 162.117188 479.472656 C 182.054688 477.636719 201.738281 475.546875 221.746094 477.847656 C 230.085938 478.804688 298.667969 498.964844 292.882812 514.382812 C 286.738281 530.761719 221.066406 523.335938 211.058594 522.617188 C 176.699219 520.140625 141.253906 517.386719 106.773438 518.652344 C 73.621094 519.871094 42.066406 524.066406 8.757812 521.660156 C -11.984375 520.164062 -51.136719 513.160156 -56.042969 488.238281 " fill-opacity="1" fill-rule="evenodd"/></g><g clip-path="url(#f2700a1e19)"><path fill="#084994" d="M -22.910156 193.554688 C -13.023438 195.070312 -5.75 198.457031 -0.453125 203.265625 C 7.527344 210.503906 11.007812 220.886719 12.464844 232.503906 C 15.007812 252.769531 11.410156 276.730469 12.882812 295.492188 C 14.132812 311.40625 18.269531 324.222656 26.535156 337.75 C 40.269531 360.222656 61.851562 367.386719 85.035156 371.992188 C 107.328125 376.417969 131.117188 378.425781 150.199219 390.683594 C 184.023438 412.40625 188.34375 441.8125 197.085938 465.679688 C 201.6875 478.242188 207.476562 489.328125 218.753906 497.304688 C 229.914062 505.195312 246.542969 510.070312 273.070312 510.027344 C 288.265625 510 302.148438 506.101562 316.566406 501.765625 C 317.753906 501.40625 318.429688 500.152344 318.070312 498.964844 C 317.710938 497.777344 316.460938 497.105469 315.273438 497.460938 C 301.277344 501.671875 287.816406 505.511719 273.0625 505.535156 C 247.828125 505.578125 231.964844 501.144531 221.347656 493.640625 C 210.851562 486.21875 205.582031 475.824219 201.304688 464.132812 C 192.28125 439.5 187.535156 409.324219 152.625 386.902344 C 133.074219 374.34375 108.75 372.121094 85.910156 367.585938 C 63.957031 363.226562 43.375 356.691406 30.367188 335.40625 C 22.492188 322.519531 18.550781 310.304688 17.359375 295.144531 C 15.882812 276.320312 19.472656 252.277344 16.917969 231.941406 C 15.320312 219.199219 11.324219 207.882812 2.566406 199.941406 C -3.292969 194.625 -11.296875 190.789062 -22.230469 189.113281 C -23.457031 188.925781 -24.601562 189.765625 -24.789062 190.992188 C -24.976562 192.21875 -24.136719 193.363281 -22.910156 193.554688 Z M 78.792969 425.453125 C 81.550781 372.199219 176.894531 409.914062 161.945312 453.167969 C 152.75 479.773438 145.15625 430.957031 139.320312 424.058594 C 129.640625 412.625 111.535156 408.847656 97.242188 410.941406 C 89.695312 412.050781 81.019531 417.730469 78.792969 425.453125 Z M 78.792969 425.453125 " fill-opacity="1" fill-rule="evenodd"/></g></svg>