<svg xmlns="http://www.w3.org/2000/svg" xmlns:xlink="http://www.w3.org/1999/xlink" width="1366" zoomAndPan="magnify" viewBox="0 0 1024.5 295.499996" height="394" preserveAspectRatio="xMidYMid meet" version="1.0"><defs><clipPath id="a8cdcb2338"><path d="M 0.617188 90.816406 L 203.324219 90.816406 L 203.324219 293.523438 L 0.617188 293.523438 Z M 0.617188 90.816406 " clip-rule="nonzero"/></clipPath><clipPath id="fe77289fde"><path d="M 0.617188 90.816406 L 121 90.816406 L 121 293.523438 L 0.617188 293.523438 Z M 0.617188 90.816406 " clip-rule="nonzero"/></clipPath><clipPath id="1ec495aa04"><path d="M 771.746094 57.5625 L 1023.320312 57.5625 L 1023.320312 295 L 771.746094 295 Z M 771.746094 57.5625 " clip-rule="nonzero"/></clipPath><clipPath id="d24ff51633"><path d="M 771.746094 74 L 1023.320312 74 L 1023.320312 295 L 771.746094 295 Z M 771.746094 74 " clip-rule="nonzero"/></clipPath></defs><g clip-path="url(#a8cdcb2338)"><path fill="#084994" d="M 0.527344 89.75 C 13.207031 111.050781 3.8125 137.566406 16.796875 158.0625 C 26.742188 173.761719 52.453125 168.089844 60.277344 186.878906 C 70.773438 212.085938 46.480469 230.183594 80.625 256.984375 C 99.511719 271.808594 207.136719 276.925781 203.546875 297.414062 C 202.53125 303.207031 159.257812 298.046875 152.699219 298.167969 C 123.300781 298.722656 93.417969 300.765625 64.144531 303.640625 C 49.683594 305.0625 34.519531 309.335938 20.007812 308.664062 C 12.613281 308.320312 4.34375 306.839844 -2.113281 303.003906 C -45.289062 277.359375 -33.359375 147.558594 -24.792969 102.332031 Z M 29.632812 119.761719 C 9.507812 142.65625 52.566406 173.78125 56.542969 144.601562 C 57.675781 136.296875 55.351562 130.027344 49.136719 124.433594 C 45.199219 120.894531 40.769531 111.933594 29.632812 119.761719 Z M 29.632812 119.761719 " fill-opacity="1" fill-rule="evenodd"/></g><g clip-path="url(#fe77289fde)"><path fill="#e55e40" d="M 90.578125 289.386719 C 103.617188 259.449219 100.347656 246.480469 94.289062 231.183594 C 89.976562 220.292969 84.332031 208.25 81.996094 188.46875 C 80.730469 177.734375 83.285156 166.09375 83.828125 155.078125 C 84.34375 144.597656 83 134.683594 74.039062 126.847656 C 61.167969 115.589844 36.527344 108.792969 16.5625 99.730469 C 2.777344 93.476562 -8.785156 86.097656 -13.253906 75.773438 C -13.582031 75.011719 -13.234375 74.125 -12.472656 73.796875 C -11.710938 73.46875 -10.828125 73.820312 -10.5 74.578125 C -6.28125 84.328125 4.792969 91.09375 17.804688 96.996094 C 38.042969 106.183594 62.96875 113.175781 76.019531 124.585938 C 85.761719 133.109375 87.386719 143.828125 86.828125 155.222656 C 86.292969 166.078125 83.730469 177.542969 84.980469 188.117188 C 87.273438 207.550781 92.84375 219.378906 97.082031 230.078125 C 103.375 245.976562 106.902344 259.457031 93.320312 290.609375 C 110.496094 298.292969 125.53125 305.289062 119.070312 316.035156 C 106.574219 336.824219 56.460938 322.785156 40.253906 319.609375 C 20.648438 315.769531 -7.546875 311.089844 -23.574219 298.023438 C -62.855469 265.996094 -52.265625 200.398438 -45.75 156.503906 L -12.957031 120.96875 C -3.074219 134.855469 4.460938 150.019531 9.285156 166.398438 C 12.433594 177.09375 12.078125 190.355469 18.917969 199.480469 C 27.132812 210.441406 41.78125 213.078125 47.710938 226.84375 C 53.429688 240.121094 49.34375 254.609375 57.046875 267.304688 C 62.714844 276.648438 76.988281 283.300781 90.578125 289.386719 Z M 90.578125 289.386719 " fill-opacity="1" fill-rule="evenodd"/></g><g clip-path="url(#1ec495aa04)"><path fill="#084994" d="M 769.054688 311.835938 C 791.566406 282.066406 824.234375 296.285156 856.035156 274.65625 C 874.085938 262.378906 866.777344 232.46875 889.953125 221.988281 C 909.039062 213.359375 944.183594 225.046875 957.808594 206.203125 C 972.402344 186.019531 957.542969 159.210938 963.882812 136.707031 C 975.730469 94.667969 998.359375 113.796875 1012.273438 90.867188 C 1017.152344 82.828125 1008.621094 35.277344 1034.148438 48.347656 C 1084.429688 74.09375 1066.863281 166.726562 1063.824219 210.644531 C 1060.085938 264.695312 1060.992188 309.910156 1000.6875 315.316406 " fill-opacity="1" fill-rule="evenodd"/></g><g clip-path="url(#d24ff51633)"><path fill="#e55e40" d="M 784.058594 314.949219 C 807.257812 293.519531 832.621094 308.847656 858.324219 296.558594 C 882.898438 284.808594 882.109375 251.792969 916.527344 247.167969 C 929.929688 245.367188 952.199219 252.121094 963.574219 241.757812 C 972.371094 233.742188 977.71875 225.660156 980.808594 214.21875 C 985.96875 195.101562 983.574219 102.109375 1028.394531 125.707031 C 1075.785156 150.65625 1093.765625 323.867188 1021.433594 317.65625 Z M 774.550781 312.128906 C 777.496094 292.960938 793.742188 285.828125 812.058594 280.808594 C 831.382812 275.511719 853.050781 272.570312 865.664062 262.183594 C 874.207031 255.152344 877.183594 245.671875 879.765625 235.988281 C 882.167969 226.96875 884.207031 217.773438 890.992188 210.628906 C 900.210938 200.925781 912.511719 199.03125 925.515625 196.703125 C 939.238281 194.25 953.726562 191.394531 966.621094 179.804688 C 972.320312 174.6875 975.980469 165.070312 979.351562 153.90625 C 984.167969 137.957031 988.519531 118.757812 998.824219 106.132812 C 1004.410156 99.28125 1011.632812 94.707031 1019.195312 90.59375 C 1027.03125 86.328125 1035.234375 82.558594 1042.511719 77.46875 C 1043.355469 76.878906 1043.5625 75.714844 1042.972656 74.871094 C 1042.382812 74.027344 1041.21875 73.824219 1040.375 74.414062 C 1033.210938 79.425781 1025.125 83.121094 1017.414062 87.320312 C 1009.425781 91.664062 1001.835938 96.542969 995.933594 103.773438 C 985.34375 116.753906 980.734375 136.429688 975.78125 152.828125 C 972.644531 163.222656 969.433594 172.265625 964.125 177.03125 C 951.824219 188.089844 937.953125 190.691406 924.859375 193.035156 C 911.046875 195.507812 898.082031 197.753906 888.289062 208.0625 C 881.054688 215.675781 878.726562 225.414062 876.164062 235.023438 C 873.777344 243.96875 871.1875 252.808594 863.292969 259.304688 C 851.023438 269.40625 829.875 272.0625 811.070312 277.214844 C 791.25 282.648438 774.054688 290.820312 770.867188 311.5625 C 770.710938 312.578125 771.410156 313.53125 772.425781 313.6875 C 773.445312 313.84375 774.398438 313.144531 774.550781 312.128906 Z M 774.550781 312.128906 " fill-opacity="1" fill-rule="evenodd"/></g></svg>