<svg xmlns="http://www.w3.org/2000/svg" xmlns:xlink="http://www.w3.org/1999/xlink" width="1366" zoomAndPan="magnify" viewBox="0 0 1024.5 493.49999" height="658" preserveAspectRatio="xMidYMid meet" version="1.0"><defs><clipPath id="f6e7c595f0"><path d="M 0.269531 0 L 283.152344 0 L 283.152344 268.367188 L 0.269531 268.367188 Z M 0.269531 0 " clip-rule="nonzero"/></clipPath><clipPath id="fa68f54987"><path d="M 0.269531 0 L 270 0 L 270 261 L 0.269531 261 Z M 0.269531 0 " clip-rule="nonzero"/></clipPath><clipPath id="a4358776a4"><path d="M 752.746094 0 L 1023.726562 0 L 1023.726562 255.777344 L 752.746094 255.777344 Z M 752.746094 0 " clip-rule="nonzero"/></clipPath><clipPath id="89b8876776"><path d="M 877 0 L 1023.726562 0 L 1023.726562 221 L 877 221 Z M 877 0 " clip-rule="nonzero"/></clipPath><clipPath id="62fb564477"><path d="M 709.796875 180.5625 L 1023.726562 180.5625 L 1023.726562 493 L 709.796875 493 Z M 709.796875 180.5625 " clip-rule="nonzero"/></clipPath><clipPath id="897d08f173"><path d="M 776 180.5625 L 1023.726562 180.5625 L 1023.726562 493 L 776 493 Z M 776 180.5625 " clip-rule="nonzero"/></clipPath><clipPath id="8bfa47e451"><path d="M 0.269531 196.875 L 294 196.875 L 294 491.328125 L 0.269531 491.328125 Z M 0.269531 196.875 " clip-rule="nonzero"/></clipPath><clipPath id="c256f98e06"><path d="M 0.269531 196.875 L 294.71875 196.875 L 294.71875 491.328125 L 0.269531 491.328125 Z M 0.269531 196.875 " clip-rule="nonzero"/></clipPath></defs><g clip-path="url(#f6e7c595f0)"><path fill="#e55e40" d="M -1.640625 276.269531 C -6.511719 187.042969 44.839844 208.410156 69.367188 160.535156 C 87.601562 124.953125 57.140625 101.707031 92.164062 64.714844 C 102.351562 53.957031 113.683594 43.570312 126.929688 36.695312 C 137.1875 31.367188 147.957031 28.183594 159.394531 26.882812 C 201.070312 22.136719 239.667969 36.894531 273.867188 2.394531 C 276.164062 0.0742188 286.460938 -12.875 285.003906 -17.242188 C 284.542969 -18.625 283.082031 -20.125 282.113281 -21.152344 C 255.929688 -48.964844 160.976562 -25.609375 125.773438 -27.414062 C 97.203125 -28.878906 69.644531 -31.019531 41.007812 -29.992188 C 5.539062 -28.722656 -21.480469 -32.625 -10.003906 17.53125 " fill-opacity="1" fill-rule="evenodd"/></g><g clip-path="url(#fa68f54987)"><path fill="#084994" d="M -17.675781 250.742188 C -17.648438 253.867188 -17.546875 257.128906 -17.355469 260.554688 L -17.675781 250.742188 C -18.324219 172.863281 30.066406 190.855469 53.652344 144.820312 C 71.886719 109.234375 41.421875 85.992188 76.449219 49 C 86.636719 38.242188 97.96875 27.855469 111.214844 20.976562 C 121.472656 15.652344 132.238281 12.46875 143.679688 11.164062 C 185.355469 6.417969 223.953125 21.179688 258.152344 -13.320312 C 260.449219 -15.640625 270.742188 -28.59375 269.289062 -32.960938 C 268.828125 -34.34375 267.363281 -35.839844 266.398438 -36.867188 C 240.214844 -64.679688 145.261719 -41.324219 110.058594 -43.128906 C 81.488281 -44.59375 53.929688 -46.734375 25.289062 -45.710938 C -10.175781 -44.4375 -37.195312 -48.34375 -25.71875 1.816406 Z M 101.390625 113.152344 C 102.519531 94.152344 105.34375 77.757812 117.203125 62.457031 C 131.242188 44.34375 149.492188 42.089844 172.347656 43.316406 C 183.496094 43.917969 206.816406 37.832031 214.3125 41.054688 C 249.953125 56.382812 100.273438 132.003906 101.390625 113.152344 Z M 101.390625 113.152344 " fill-opacity="1" fill-rule="evenodd"/></g><g clip-path="url(#a4358776a4)"><path fill="#e55e40" d="M 1029.785156 234.703125 L 1028.8125 256.839844 C 1023.417969 251.582031 1019.367188 245.550781 1016.335938 238.957031 C 1007.359375 235.148438 1001.261719 226.539062 996.601562 215.898438 C 991.148438 203.441406 987.648438 188.199219 983.335938 175.375 C 980.578125 167.160156 977.511719 159.953125 973.265625 155.28125 C 958.839844 139.414062 940.542969 134.09375 922.453125 127.246094 C 903.699219 120.144531 885.148438 111.488281 870.863281 89.007812 C 855.148438 64.269531 854.488281 38.164062 854.125 10.714844 C 819.363281 3.539062 777.480469 34.859375 749.152344 -1.585938 C 744.675781 -7.34375 742.394531 -12.835938 745.445312 -19.761719 C 768.539062 -72.171875 878.796875 -51.414062 919.703125 -46.894531 C 948.757812 -43.6875 996.21875 -45.132812 1019.242188 -24.085938 C 1036.121094 -8.65625 1038.15625 14.867188 1038.496094 36.410156 L 1029.96875 230.539062 C 1030.214844 230.734375 1030.460938 230.925781 1030.710938 231.117188 C 1031.59375 231.785156 1031.765625 233.046875 1031.09375 233.929688 C 1030.761719 234.367188 1030.285156 234.628906 1029.785156 234.703125 Z M 1013.949219 233.078125 C 1006.125 211.171875 1007.585938 184.09375 1008.109375 158.179688 C 1007.585938 149.945312 1006.355469 142.035156 1003.328125 134.933594 C 998.421875 123.433594 988.828125 116.402344 978.808594 109.632812 C 968.257812 102.503906 957.230469 95.660156 950.019531 84.894531 C 945.917969 78.769531 943.144531 72.375 941.105469 65.835938 C 928.023438 64.25 915.039062 62.46875 903.75 55.625 C 884.71875 44.09375 881.691406 18.878906 858.136719 11.726562 C 858.449219 38.042969 859.164062 63.109375 874.253906 86.851562 C 887.972656 108.445312 905.863281 116.667969 923.875 123.488281 C 942.546875 130.558594 961.34375 136.203125 976.234375 152.582031 C 980.792969 157.59375 984.179688 165.277344 987.144531 174.097656 C 991.414062 186.816406 994.875 201.933594 1000.28125 214.285156 C 1003.753906 222.226562 1008.011719 229.03125 1013.949219 233.078125 Z M 1008.074219 136.054688 C 1007.082031 108.414062 1001.1875 84.5625 976.042969 73.410156 C 966.457031 69.15625 955.988281 67.648438 945.46875 66.363281 C 947.347656 71.945312 949.839844 77.410156 953.355469 82.65625 C 960.277344 92.992188 970.933594 99.464844 981.058594 106.308594 C 991.722656 113.511719 1001.804688 121.121094 1007.019531 133.359375 C 1007.394531 134.246094 1007.75 135.144531 1008.074219 136.054688 Z M 1008.074219 136.054688 " fill-opacity="1" fill-rule="evenodd"/></g><g clip-path="url(#89b8876776)"><path fill="#084994" d="M 918.734375 22.835938 C 916.566406 28.332031 914.675781 33.753906 913.273438 39.089844 C 910.230469 50.65625 909.488281 61.808594 913.371094 72.417969 C 917.269531 83.066406 925.824219 93.117188 941.152344 102.550781 C 955.472656 111.359375 970.257812 118.289062 980.382812 132.316406 C 990.542969 146.382812 996.800781 161.574219 1003.898438 176.414062 C 1010.839844 190.929688 1018.59375 205.109375 1031.867188 217.46875 C 1032.679688 218.222656 1032.726562 219.496094 1031.96875 220.304688 C 1031.214844 221.117188 1029.941406 221.160156 1029.132812 220.40625 C 1015.460938 207.675781 1007.429688 193.097656 1000.277344 178.144531 C 993.28125 163.519531 987.144531 148.53125 977.128906 134.667969 C 967.324219 121.085938 952.914062 114.5 939.050781 105.96875 C 922.734375 95.929688 913.753906 85.128906 909.601562 73.796875 C 905.4375 62.425781 906.128906 50.472656 909.390625 38.070312 C 910.84375 32.535156 912.8125 26.90625 915.074219 21.199219 C 891.488281 10.359375 874.152344 -4.273438 878.707031 -29.390625 C 889.222656 -87.3125 997.046875 -89.792969 1024.433594 -42.832031 C 1038.566406 -18.601562 1032.019531 13.011719 1033.996094 39.804688 L 1036.738281 193.449219 C 1004.855469 156.0625 1041.90625 97.324219 1005.855469 60.363281 C 989.964844 44.070312 949.835938 36.304688 918.734375 22.835938 Z M 918.734375 22.835938 " fill-opacity="1" fill-rule="evenodd"/></g><g clip-path="url(#62fb564477)"><path fill="#e55e40" d="M 1023.273438 177.179688 C 1025.515625 208.976562 1023.195312 244.519531 1008.898438 273.898438 C 993.6875 305.15625 959.066406 311.222656 937.667969 336.097656 C 906.605469 372.199219 944.082031 407.386719 879.765625 445.390625 C 856.40625 459.191406 830.429688 470.453125 803.460938 474.648438 C 801.484375 474.957031 799.507812 475.265625 797.53125 475.515625 C 795.722656 475.746094 793.914062 475.933594 792.101562 476.09375 C 789.910156 476.292969 787.714844 476.464844 785.515625 476.535156 C 762.574219 477.242188 728.949219 468.152344 713.050781 491.855469 C 712.753906 492.296875 706.730469 499.945312 707.378906 501.839844 C 713.210938 518.832031 837.5625 504.402344 858.292969 505.355469 C 901.054688 507.324219 942.78125 512.4375 985.722656 510.988281 C 1041.570312 509.101562 1043.125 494.40625 1040.457031 438.386719 C 1039.261719 413.160156 1042.335938 383.214844 1036.085938 359.1875 " fill-opacity="1" fill-rule="evenodd"/></g><g clip-path="url(#897d08f173)"><path fill="#084994" d="M 1034.84375 180.367188 C 1039.710938 225.398438 1055.535156 301.671875 1012.523438 334.277344 C 994.183594 348.179688 972.671875 358.347656 960.179688 378.703125 C 944.226562 404.703125 944.285156 437.234375 917.988281 456.898438 C 884.03125 482.296875 777.3125 485.382812 776.441406 500.496094 C 775.429688 518.117188 863.03125 514.914062 872.757812 514.875 C 894.222656 514.777344 1023.691406 514.78125 1034.902344 492.804688 C 1041.222656 480.414062 1035.058594 462.851562 1035.636719 449.832031 " fill-opacity="1" fill-rule="evenodd"/></g><g clip-path="url(#8bfa47e451)"><path fill="#084994" d="M -15.691406 194.046875 C 54.347656 213.445312 3.636719 253.8125 39.664062 300.113281 C 58.230469 323.972656 103.21875 300.394531 106.996094 336.472656 C 110.035156 365.53125 48.632812 408.308594 69.324219 428.859375 C 89.652344 449.054688 112.203125 405.433594 134.589844 417.109375 C 159.085938 429.882812 108.15625 463.320312 139.933594 468.316406 C 148.523438 469.664062 157.105469 468.964844 165.71875 468.171875 C 185.097656 466.386719 204.234375 464.355469 223.679688 466.59375 C 231.785156 467.523438 298.449219 487.121094 292.828125 502.105469 C 286.855469 518.027344 223.019531 510.8125 213.292969 510.109375 C 179.894531 507.703125 145.441406 505.023438 111.921875 506.257812 C 79.695312 507.441406 49.027344 511.519531 16.648438 509.183594 C -3.515625 507.726562 -41.570312 500.917969 -46.339844 476.695312 " fill-opacity="1" fill-rule="evenodd"/></g><g clip-path="url(#c256f98e06)"><path fill="#e55e40" d="M -14.136719 190.25 C -4.523438 191.722656 2.546875 195.015625 7.695312 199.691406 C 15.453125 206.726562 18.832031 216.820312 20.25 228.109375 C 22.722656 247.808594 19.226562 271.101562 20.65625 289.339844 C 21.871094 304.804688 25.894531 317.265625 33.925781 330.410156 C 47.277344 352.257812 68.257812 359.21875 90.792969 363.695312 C 112.460938 368 135.585938 369.953125 154.132812 381.863281 C 187.011719 402.980469 191.214844 431.5625 199.710938 454.765625 C 204.183594 466.976562 209.808594 477.753906 220.773438 485.503906 C 231.621094 493.175781 247.785156 497.914062 273.566406 497.871094 C 288.339844 497.847656 301.832031 494.054688 315.851562 489.839844 C 317.003906 489.492188 317.660156 488.273438 317.308594 487.121094 C 316.964844 485.964844 315.746094 485.3125 314.59375 485.660156 C 300.988281 489.75 287.902344 493.480469 273.558594 493.507812 C 249.03125 493.546875 233.613281 489.238281 223.292969 481.941406 C 213.089844 474.730469 207.96875 464.625 203.808594 453.261719 C 195.039062 429.316406 190.425781 399.988281 156.492188 378.191406 C 137.488281 365.984375 113.84375 363.824219 91.640625 359.417969 C 70.300781 355.175781 50.296875 348.824219 37.652344 328.132812 C 29.996094 315.609375 26.164062 303.738281 25.007812 288.996094 C 23.574219 270.699219 27.0625 247.332031 24.582031 227.566406 C 23.027344 215.175781 19.140625 204.175781 10.628906 196.457031 C 4.933594 191.289062 -2.84375 187.5625 -13.472656 185.933594 C -14.664062 185.75 -15.78125 186.566406 -15.960938 187.761719 C -16.144531 188.949219 -15.328125 190.066406 -14.136719 190.25 Z M 84.722656 415.664062 C 87.402344 363.898438 180.085938 400.558594 165.550781 442.605469 C 156.613281 468.464844 149.230469 421.011719 143.558594 414.308594 C 134.148438 403.191406 116.550781 399.519531 102.65625 401.558594 C 95.320312 402.636719 86.886719 408.15625 84.722656 415.664062 Z M 84.722656 415.664062 " fill-opacity="1" fill-rule="evenodd"/></g></svg>