<svg width="16" height="17" viewBox="0 0 16 17" fill="none" xmlns="http://www.w3.org/2000/svg">
<path d="M12.1848 9.84166L12.1849 9.84162L15.3946 7.1254C15.5894 6.96047 15.4981 6.6309 15.2187 6.60877L11.0059 6.27511C10.5211 6.23671 10.095 5.93319 9.90555 5.48345L9.90551 5.48334L8.2825 1.62823C8.17927 1.38304 7.82077 1.38304 7.71754 1.62823L6.09449 5.48335C5.9051 5.9332 5.47895 6.23672 4.99417 6.27511L0.781313 6.60877C0.501884 6.6309 0.410561 6.96047 0.60544 7.1254C0.605441 7.1254 0.605443 7.1254 0.605444 7.1254L3.8152 9.84162L3.81524 9.84165C4.18759 10.1568 4.35237 10.6538 4.23758 11.1292C4.23758 11.1292 4.23758 11.1292 4.23758 11.1292L3.25695 15.1905C3.19903 15.4304 3.46982 15.6564 3.71527 15.5084L12.1848 9.84166ZM12.1848 9.84166C11.8125 10.1568 11.6476 10.6538 11.7624 11.1292L12.7431 15.1905C12.801 15.4304 12.5302 15.6564 12.2848 15.5084C12.2847 15.5084 12.2847 15.5084 12.2847 15.5084L8.67798 13.3319C8.26148 13.0806 7.73858 13.0806 7.32207 13.3319C7.32207 13.3319 7.32206 13.3319 7.32206 13.3319L3.7153 15.5084L12.1848 9.84166Z" stroke="#334B89"/>
</svg>
